<svg width="46" height="16" viewBox="0 0 46 16" fill="white" xmlns="http://www.w3.org/2000/svg">
    <path d="M45.6825 0.25H42.6399V15.4006H45.6825V0.25Z"></path>
    <path d="M25.6201 8.96587V0.25H28.7188V8.90653C28.7188 10.9536 29.9484 12.7667 32.4636 12.7667C34.9788 12.7667 36.0897 11.069 36.0897 8.90653V0.25H39.1324V8.96587C39.1324 12.8854 36.6765 15.75 32.4636 15.75C28.2507 15.75 25.6201 12.8854 25.6201 8.96587Z"></path>
    <path d="M22.2282 0.25H19.1855V15.4006H22.2282V0.25Z"></path>
    <path d="M12.4607 6.51L8.12909 11.013H7.48628L3.04264 6.51V15.4006H0V0.25H0.817524L7.72033 6.97809L14.6825 0.25H15.5V15.4006H12.4607V6.51Z"></path>
</svg>